<?xml version="1.0" encoding="UTF-8"?>
<svg id="Layer_1" data-name="Layer 1" xmlns="http://www.w3.org/2000/svg" viewBox="0 0 960 960">
  <defs>
    <style>
      .cls-1 {
        fill: #82e600;
      }

      .cls-1, .cls-2 {
        stroke-width: 0px;
      }

      .cls-2 {
        fill: #4e6b7c;
      }
    </style>
  </defs>
  <g id="layer1">
    <g id="g70327">
      <g id="g41720">
        <path id="path41722" class="cls-2" d="M876.7,565.31c-70.06-5.2-157.23-9.51-252.49-9.51-145.81,0-310.44,9.95-460.6,41.07-25.18-31.79-55.81-56.75-102.76-76.47l-.69,1.37c41.53,45.12,68.06,84.14,86.87,139.96,210.5-78.48,474.77-93.02,674.3-93.02,19.1,0,37.29.23,54.89.46l.47-3.86"/>
      </g>
      <g id="g41724">
        <path id="path41726" class="cls-1" d="M657.61,422.64c1.14-5.43,2.06-9.97,2.06-16.32,0-12.24-7.73-17.25-15.91-17.25-13.4,0-20.38,7.96-23.55,33.57h37.4ZM392,484.36c-4.08,2.94-10.21,6.34-17.01,6.34-12.94,0-14.75-10.9-14.75-23.82,0-15.19,4.1-42.18,8.61-52.85,6.83-16.34,16.12-20.86,31.09-20.86.44,0,1.6,0,3.19.23l-11.12,90.96ZM831.54,447.13c-4.74,44.01-11.34,53.09-23.99,53.09-11.6,0-16.12-8.41-16.12-26.78,0-7.92.9-19.03,2.27-30.6,4.77-44.03,11.35-53.09,24-53.09,11.6,0,16.12,8.4,16.12,26.76,0,7.94-.91,19.05-2.29,30.62ZM530.32,530.59h-63.02l28.57-232.24h63.08l-28.64,232.24ZM658.53,490.24c12.65,0,29.69-2.94,43.08-6.8l-7.71,42.2c-15.91,4.05-38.31,6.32-58.31,6.32-63.7,0-81.41-27.69-81.41-63.96,0-92.78,39.91-113.85,94.81-113.85,43.1,0,69.83,20.85,69.83,60.79,0,17.43-3.57,33.12-6.07,44h-94.82c0,19.98,6.52,31.3,40.6,31.3h0ZM410.59,355.51c-44,0-67.8,8.38-87.09,29.02-18.36,19.54-28.12,54.01-28.12,90.52,0,31.76,7.92,58.05,47.18,58.05,17.89,0,33.57-6.77,48.08-15.19h.67l-1.57,12.69h59.65l21.32-173.94c-17.46-.7-37.66-1.14-60.12-1.14h0ZM898.96,417.21c0-44.93-29.09-63.06-77.86-63.06-58.92,0-94.81,27-94.81,118.62,0,44.9,29.08,63.06,77.86,63.06,58.92,0,94.81-26.32,94.81-118.62ZM273.59,298.36c-14.49,54.42-34.47,108.87-60.1,163.54h-.46c-6.78-44.45-10.2-108.43-10.2-163.54h-73.06c2.29,87.06,17.48,163.98,34.5,232.24h70.32c39.68-71.66,76.88-148.77,105.69-232.24h-66.69"/>
      </g>
    </g>
  </g>
</svg>